<svg width="15" height="23" viewBox="0 0 15 23" fill="none" xmlns="http://www.w3.org/2000/svg">
<path d="M13.8219 6.06706C13.6908 6.06706 13.567 6.0925 13.4492 6.13043C13.4503 6.10908 13.4558 6.08886 13.4558 6.06706C13.4558 5.44271 12.9283 4.93646 12.2777 4.93646C11.6271 4.93646 11.0996 5.44271 11.0996 6.06706H8.6781V3.74317C9.32868 3.74317 9.85619 3.23714 9.85619 2.61256C9.85619 1.98821 9.32868 1.48196 8.6781 1.48196C8.65561 1.48196 8.63455 1.48718 8.61207 1.48832C8.65159 1.37521 8.6781 1.25643 8.6781 1.1306C8.6781 0.506252 8.15058 0 7.5 0C6.84942 0 6.3219 0.506252 6.3219 1.1306C6.3219 1.25643 6.34841 1.37521 6.38793 1.48832C6.36569 1.48718 6.34462 1.48196 6.3219 1.48196C5.67133 1.48196 5.14381 1.98821 5.14381 2.61256C5.14381 3.23692 5.67133 3.74317 6.3219 3.74317V6.06706H3.9004C3.9004 5.44271 3.37288 4.93646 2.7223 4.93646C2.07173 4.93646 1.54421 5.44271 1.54421 6.06706C1.54421 6.08863 1.54965 6.10885 1.55084 6.13043C1.43298 6.0925 1.3092 6.06706 1.17809 6.06706C0.527515 6.06706 0 6.57331 0 7.19767C0 7.82202 0.527515 8.32827 1.17809 8.32827C1.3092 8.32827 1.43298 8.30283 1.55084 8.2649C1.54965 8.28625 1.54421 8.30647 1.54421 8.32827C1.54421 8.95262 2.07173 9.45887 2.7223 9.45887C3.37288 9.45887 3.9004 8.95262 3.9004 8.32827H6.3219V19.2568C5.67133 19.2568 5.14381 19.7631 5.14381 20.3874C5.14381 21.0118 5.67133 21.518 6.3219 21.518C6.34439 21.518 6.36545 21.5128 6.38793 21.5117C6.34841 21.6248 6.3219 21.7436 6.3219 21.8694C6.3219 22.4937 6.84942 23 7.5 23C8.15058 23 8.6781 22.4937 8.6781 21.8694C8.6781 21.7436 8.65159 21.6248 8.61207 21.5117C8.63431 21.5128 8.65538 21.518 8.6781 21.518C9.32868 21.518 9.85619 21.0118 9.85619 20.3874C9.85619 19.7631 9.32868 19.2568 8.6781 19.2568V8.32827H11.0996C11.0996 8.95262 11.6271 9.45887 12.2777 9.45887C12.9283 9.45887 13.4558 8.95262 13.4558 8.32827C13.4558 8.30647 13.4503 8.28625 13.4492 8.2649C13.567 8.30283 13.6908 8.32827 13.8219 8.32827C14.4725 8.32827 15 7.82202 15 7.19767C14.9998 6.57308 14.4725 6.06706 13.8219 6.06706Z" fill="white"/>
</svg>
